<?xml version="1.0" encoding="UTF-8" standalone="no"?><svg xmlns="http://www.w3.org/2000/svg" xmlns:xlink="http://www.w3.org/1999/xlink" clip-rule="evenodd" stroke-miterlimit="10" viewBox="0 0 1024 768"><desc>SVG generated by Keynote</desc><defs></defs><g transform="matrix(1.00, 0.00, -0.00, -1.00, 0.0, 768.0)"><path d="M 0.0 768.0 L 1024.0 768.0 L 1024.0 0.0 L 0.0 0.0 Z M 0.0 768.0 " fill="#FEFFFF"></path><path d="M 921.0 533.0 L 972.0 533.0 L 972.0 52.0 L 921.0 52.0 Z M 920.5 532.5 " fill="#58AFDC"></path><path d="M 921.0 717.0 L 972.0 717.0 L 972.0 550.0 L 921.0 550.0 Z M 920.5 716.7 " fill="#94DBFE"></path><g><clipPath id="clip0x608001cbdf40"><path d="M 51.0 717.0 L 903.0 717.0 L 903.0 52.0 L 51.0 52.0 Z M 51.2 716.6 "></path></clipPath><g clip-path="url(#clip0x608001cbdf40)"><image xlink:href="../../96859593-D4A9-44D2-B81A-7E41585D82CA/assets/7857F79ACA79BD14CB4E9DF0DBD46620.png" width="998.00" height="1068.00" transform="matrix(0.85, 0.00, -0.00, -0.85, 51.0, 719.0)"></image></g></g><g><clipPath id="clip0x6100022a1680"><path d="M 437.0 1.5 L 483.0 1.5 L 483.0 47.5 L 437.0 47.5 Z M 437.0 1.5 "></path></clipPath><g clip-path="url(#clip0x6100022a1680)"><path d="M 36.7 6.3 C 45.1 14.7 45.1 28.3 36.7 36.7 C 28.3 45.1 14.7 45.1 6.3 36.7 C -2.1 28.3 -2.1 14.7 6.3 6.3 C 14.7 -2.1 28.3 -2.1 36.7 6.3 " fill="none" stroke="#94DBFE" stroke-width="1.00" transform="matrix(1.00, 0.00, 0.00, -1.00, 438.5, 46.0)"></path></g></g><g><clipPath id="clip0x6100022a60c0"><path d="M 446.5 35.0 L 446.5 13.4 L 468.1 13.4 L 468.1 35.0 Z M 446.5 35.0 "></path></clipPath><g clip-path="url(#clip0x6100022a60c0)"><path d="M 467.1 34.0 L 467.1 14.4 L 447.5 24.2 Z M 467.1 34.0 " fill="#94DBFE"></path></g></g><g><clipPath id="clip0x6100022abdc0"><path d="M 541.0 1.5 L 587.0 1.5 L 587.0 47.5 L 541.0 47.5 Z M 541.0 1.5 "></path></clipPath><g clip-path="url(#clip0x6100022abdc0)"><path d="M 36.7 6.3 C 45.1 14.7 45.1 28.3 36.7 36.7 C 28.3 45.1 14.7 45.1 6.3 36.7 C -2.1 28.3 -2.1 14.7 6.3 6.3 C 14.7 -2.1 28.3 -2.1 36.7 6.3 " fill="none" stroke="#94DBFE" stroke-width="1.00" transform="matrix(1.00, 0.00, 0.00, -1.00, 542.5, 46.0)"></path></g></g><g><clipPath id="clip0x6100024acf60"><path d="M 577.1 13.4 L 577.1 35.0 L 555.5 35.0 L 555.5 13.4 Z M 577.1 13.4 "></path></clipPath><g clip-path="url(#clip0x6100024acf60)"><path d="M 557.0 14.0 L 557.0 34.0 L 576.1 24.2 Z M 556.5 14.4 " fill="#94DBFE"></path></g></g><g><clipPath id="clip0x6100022b9200"><path d="M 489.0 1.5 L 535.0 1.5 L 535.0 47.5 L 489.0 47.5 Z M 489.0 1.5 "></path></clipPath><g clip-path="url(#clip0x6100022b9200)"><path d="M 36.7 6.3 C 45.1 14.7 45.1 28.3 36.7 36.7 C 28.3 45.1 14.7 45.1 6.3 36.7 C -2.1 28.3 -2.1 14.7 6.3 6.3 C 14.7 -2.1 28.3 -2.1 36.7 6.3 " fill="none" stroke="#94DBFE" stroke-width="1.00" transform="matrix(1.00, 0.00, 0.00, -1.00, 490.5, 46.0)"></path></g></g><g><clipPath id="clip0x6100022ba520"><path d="M 501.3 14.0 L 510.7 14.0 L 510.7 27.2 L 501.3 27.2 Z M 501.3 14.0 "></path></clipPath><g clip-path="url(#clip0x6100022ba520)"><path d="M 502.0 26.0 L 510.0 26.0 L 510.0 15.0 L 502.0 15.0 Z M 502.3 26.2 " fill="#94DBFE"></path></g></g><g><clipPath id="clip0x6100022aef40"><path d="M 498.5 24.6 L 524.5 24.6 L 524.5 36.0 L 498.5 36.0 Z M 498.5 24.6 "></path></clipPath><g clip-path="url(#clip0x6100022aef40)"><path d="M 500.0 26.0 L 523.5 26.0 L 511.5 35.0 Z M 499.5 25.6 " fill="#94DBFE"></path></g></g><g><clipPath id="clip0x6100018a3480"><path d="M 512.3 14.0 L 521.7 14.0 L 521.7 27.2 L 512.3 27.2 Z M 512.3 14.0 "></path></clipPath><g clip-path="url(#clip0x6100018a3480)"><path d="M 513.0 26.0 L 521.0 26.0 L 521.0 15.0 L 513.0 15.0 Z M 513.3 26.2 " fill="#94DBFE"></path></g></g><g><clipPath id="clip0x6100022aa560"><path d="M 506.8 21.1 L 518.0 21.1 L 518.0 30.6 L 506.8 30.6 Z M 506.8 21.1 "></path></clipPath><g clip-path="url(#clip0x6100022aa560)"><path d="M 508.0 30.0 L 517.0 30.0 L 517.0 22.0 L 508.0 22.0 Z M 507.8 29.6 " fill="#94DBFE"></path></g></g><g><clipPath id="clip0x6100022b7d00"><path d="M 514.2 26.5 L 519.9 26.5 L 519.9 36.0 L 514.2 36.0 Z M 514.2 26.5 "></path></clipPath><g clip-path="url(#clip0x6100022b7d00)"><path d="M 515.0 35.0 L 519.0 35.0 L 519.0 27.0 L 515.0 27.0 Z M 515.2 35.0 " fill="#94DBFE"></path></g></g><path d="M 0.0 18.9 L 0.0 18.9 C 0.0 8.5 8.5 0.0 18.9 0.0 L 168.2 0.0 C 178.6 0.0 187.1 8.5 187.1 18.9 L 187.1 18.9 C 187.1 29.3 178.6 38.0 168.2 38.0 L 18.9 38.0 C 8.5 38.0 0.0 29.3 0.0 18.9 Z M 0.0 18.9 " fill="none" stroke="#94DBFE" stroke-width="1.00" transform="matrix(1.00, 0.00, 0.00, -1.00, 418.4, 760.5)"></path><g><clipPath id="clip0x6100024a3180"><path d="M 418.4 722.7 L 605.6 722.7 L 605.6 760.5 L 418.4 760.5 Z M 418.4 722.7 "></path></clipPath><g clip-path="url(#clip0x6100024a3180)"><text xml:space="preserve" font-family="HelveticaNeue,Helvetica Neue" font-size="14.0" fill="#58AFDC" transform="matrix(1.00, 0.00, -0.00, -1.00, 468.3, 736.5)">P</text><text xml:space="preserve" font-family="HelveticaNeue,Helvetica Neue" font-size="14.0" fill="#58AFDC" transform="matrix(1.00, 0.00, -0.00, -1.00, 477.4, 736.5)">a</text><text xml:space="preserve" font-family="HelveticaNeue,Helvetica Neue" font-size="14.0" fill="#58AFDC" transform="matrix(1.00, 0.00, -0.00, -1.00, 484.9, 736.5)">t</text><text xml:space="preserve" font-family="HelveticaNeue,Helvetica Neue" font-size="14.0" fill="#58AFDC" transform="matrix(1.00, 0.00, -0.00, -1.00, 489.3, 736.5)">e</text><text xml:space="preserve" font-family="HelveticaNeue,Helvetica Neue" font-size="14.0" fill="#58AFDC" transform="matrix(1.00, 0.00, -0.00, -1.00, 496.8, 736.5)">n</text><text xml:space="preserve" font-family="HelveticaNeue,Helvetica Neue" font-size="14.0" fill="#58AFDC" transform="matrix(1.00, 0.00, -0.00, -1.00, 504.6, 736.5)">t</text><text xml:space="preserve" font-family="HelveticaNeue,Helvetica Neue" font-size="14.0" fill="#58AFDC" transform="matrix(1.00, 0.00, -0.00, -1.00, 509.0, 736.5)"> </text><text xml:space="preserve" font-family="HelveticaNeue,Helvetica Neue" font-size="14.0" fill="#58AFDC" transform="matrix(1.00, 0.00, -0.00, -1.00, 512.9, 736.5)">C</text><text xml:space="preserve" font-family="HelveticaNeue,Helvetica Neue" font-size="14.0" fill="#58AFDC" transform="matrix(1.00, 0.00, -0.00, -1.00, 523.0, 736.5)">l</text><text xml:space="preserve" font-family="HelveticaNeue,Helvetica Neue" font-size="14.0" fill="#58AFDC" transform="matrix(1.00, 0.00, -0.00, -1.00, 526.1, 736.5)">a</text><text xml:space="preserve" font-family="HelveticaNeue,Helvetica Neue" font-size="14.0" fill="#58AFDC" transform="matrix(1.00, 0.00, -0.00, -1.00, 533.6, 736.5)">i</text><text xml:space="preserve" font-family="HelveticaNeue,Helvetica Neue" font-size="14.0" fill="#58AFDC" transform="matrix(1.00, 0.00, -0.00, -1.00, 536.7, 736.5)">m</text><text xml:space="preserve" font-family="HelveticaNeue,Helvetica Neue" font-size="14.0" fill="#58AFDC" transform="matrix(1.00, 0.00, -0.00, -1.00, 548.7, 736.5)">s</text></g></g></g></svg>